<svg xmlns="http://www.w3.org/2000/svg" width="95.43" height="26" viewBox="0 0 95.43 26"><defs><style>.cls-1{fill:#fff;}.cls-2{fill:#333;}.cls-3{fill:#60a9e9;}</style></defs><title>article-follow-us</title><g id="Layer_2" data-name="Layer 2"><g id="Layer_1-2" data-name="Layer 1"><rect class="cls-1" width="95.43" height="26"/><path class="cls-2" d="M37.54,12.95v3.6H36.38V8.15h4.94l-.36,1H37.54V11.9h3v1Z"/><path class="cls-2" d="M45,10.38a3.06,3.06,0,0,1,3.15,3.14A3.15,3.15,0,0,1,45,16.71a3.09,3.09,0,0,1-3.15-3.15A3.15,3.15,0,0,1,45,10.38ZM43,13.56a2.07,2.07,0,0,0,2,2.18,2.1,2.1,0,0,0,2.08-2.22A2.06,2.06,0,0,0,45,11.35,2.08,2.08,0,0,0,43,13.56Z"/><path class="cls-2" d="M49.78,7.84l1.08-.4v9.1H49.78Z"/><path class="cls-2" d="M53,7.84l1.08-.4v9.1H53Z"/><path class="cls-2" d="M58.87,10.38A3.06,3.06,0,0,1,62,13.52a3.15,3.15,0,0,1-3.18,3.19,3.09,3.09,0,0,1-3.15-3.15A3.15,3.15,0,0,1,58.87,10.38Zm-2.06,3.18a2.07,2.07,0,0,0,2,2.18,2.1,2.1,0,0,0,2.07-2.22,2.06,2.06,0,0,0-2.05-2.17A2.08,2.08,0,0,0,56.81,13.56Z"/><path class="cls-2" d="M62.79,10.55H64l1.55,4.64,2.18-4.71h.2l2,4.71,1.7-4.64h1.1l-2.35,6.08h-.9l-1.74-4-1.85,4H65Z"/><path class="cls-2" d="M80.76,15.42a2.59,2.59,0,0,1-2.13,1.25,2.1,2.1,0,0,1-2.11-2.34V10.55h1.09v3.67a1.29,1.29,0,0,0,1.33,1.48c.6,0,1.09-.28,1.82-1.08V10.55h1.09v6H80.76Z"/><path class="cls-2" d="M85.93,16.68a4.1,4.1,0,0,1-2.35-.73l-.23-1.3,0,0a4.41,4.41,0,0,0,2.66,1.08c.72,0,1.25-.31,1.25-.76s-.35-.7-1.63-1-2.08-.7-2.08-1.75.94-1.79,2.34-1.79a3.94,3.94,0,0,1,2,.55V12.1l0,0a4,4,0,0,0-2.05-.73c-.73,0-1.18.29-1.18.7s.38.67,1.6,1,2.11.72,2.11,1.85S87.32,16.68,85.93,16.68Z"/><path class="cls-3" d="M8.62,4.5v17h17V4.5ZM22,11a6.61,6.61,0,0,1-10.17,5.87,4.68,4.68,0,0,0,3.44-1,2.33,2.33,0,0,1-2.17-1.61,2.34,2.34,0,0,0,1,0A2.33,2.33,0,0,1,12.26,12a2.31,2.31,0,0,0,1.05.29,2.33,2.33,0,0,1-.72-3.1,6.6,6.6,0,0,0,4.79,2.43,2.33,2.33,0,0,1,4-2.12,4.65,4.65,0,0,0,1.48-.56,2.33,2.33,0,0,1-1,1.29,4.66,4.66,0,0,0,1.34-.37A4.75,4.75,0,0,1,22,11Z"/></g></g></svg>