<svg xmlns="http://www.w3.org/2000/svg" width="84" height="26" viewBox="0 0 84 26"><defs><style>.cls-1{fill:#fff;}.cls-2{fill:#475994;}.cls-3{fill:#333;}</style></defs><title>article-like-us</title><g id="Layer_2" data-name="Layer 2"><g id="Layer_1-2" data-name="Layer 1"><rect class="cls-1" width="84" height="26"/><path class="cls-2" d="M9.18,4.5v17h17V4.5Zm11.33,5H19.15c-.44,0-.76.18-.76.63v.79h2.13L20.34,13h-2v5.67H16.26V13H14.84V10.88h1.42V9.51c0-1.43.75-2.18,2.45-2.18h1.8Z"/><path class="cls-3" d="M36.38,8.15h1.16V15.5h3.61v1H36.38Z"/><path class="cls-3" d="M43.24,9.15A.74.74,0,1,1,44,8.4.74.74,0,0,1,43.24,9.15Zm-.54,1.4h1.08v6H42.7Z"/><path class="cls-3" d="M47.31,13.91H47v2.64H45.88V7.84L47,7.44v5.65h.34l2.51-2.54h1.35v0l-2.93,2.88,3.13,3v0H49.94Z"/><path class="cls-3" d="M54.93,16.68a2.92,2.92,0,0,1-3.11-3.13,3,3,0,0,1,2.93-3.17c1.86,0,2.73,1.51,2.73,3.11a3.24,3.24,0,0,1,0,.48H52.94A2,2,0,0,0,55,15.69,4.29,4.29,0,0,0,57.25,15l0,0-.38,1.16A3.79,3.79,0,0,1,54.93,16.68Zm-2-3.51h3.48c-.1-1.08-.67-1.83-1.68-1.83A1.86,1.86,0,0,0,52.91,13.16Z"/><path class="cls-3" d="M65.75,15.42a2.59,2.59,0,0,1-2.13,1.25,2.1,2.1,0,0,1-2.11-2.34V10.55h1.09v3.67a1.29,1.29,0,0,0,1.33,1.48c.6,0,1.09-.28,1.82-1.08V10.55h1.09v6H65.75Z"/><path class="cls-3" d="M70.92,16.68a4.1,4.1,0,0,1-2.35-.73l-.23-1.3,0,0A4.41,4.41,0,0,0,71,15.71c.72,0,1.25-.31,1.25-.76s-.35-.7-1.63-1-2.08-.7-2.08-1.75.94-1.79,2.34-1.79a3.94,3.94,0,0,1,2,.55V12.1l0,0a4,4,0,0,0-2.05-.73c-.73,0-1.18.29-1.18.7s.38.67,1.6,1,2.11.72,2.11,1.85S72.31,16.68,70.92,16.68Z"/></g></g></svg>